# xmcd CD database file
#
# Track frame offsets:
#	182
#	18395
#	47300
#	69317
#	91040
#	114440
#	134182
#	156472
#	180550
#	203285
#	221357
#	245822
#	268537
#
# Disc length: 3846 seconds
#
# Revision: 0
# Processed by: cddbd v1.5.1PL0 Copyright (c) Steve Scherf et al.
# Submitted via: CDex 1.51
#
DISCID=ad0f040d
DTITLE=Scott Weiland - 12 Bar Blues promo
DYEAR=1998
DGENRE=Jazz
TTITLE0=Desperation #5
TTITLE1=Barbarella
TTITLE2=Lazy Divey
TTITLE3=About Nothing
TTITLE4=Where's The Man
TTITLE5=Divider
TTITLE6=Cool Kiss
TTITLE7=The Date
TTITLE8=Son
TTITLE9=Jimmy Was A stimulator
TTITLE10=Lady, Your Roof Brings Me Down
TTITLE11=Mockingbird Girl
TTITLE12=Opposite Octave Direction
EXTD=YEAR: 1998
EXTT0=
EXTT1=
EXTT2=
EXTT3=
EXTT4=
EXTT5=
EXTT6=
EXTT7=
EXTT8=
EXTT9=
EXTT10=
EXTT11=
EXTT12=
PLAYORDER=
